<?xml version="1.0" encoding="utf-8"?>
<!-- Generator: Adobe Illustrator 26.3.1, SVG Export Plug-In . SVG Version: 6.00 Build 0)  -->
<svg version="1.1" xmlns="http://www.w3.org/2000/svg" xmlns:xlink="http://www.w3.org/1999/xlink" x="0px" y="0px"
	 viewBox="0 0 253.08 203.47" style="enable-background:new 0 0 253.08 203.47;" xml:space="preserve">
<style type="text/css">
	.st0{fill:#424143;}
	.st1{fill:#EC1F36;}
	.st2{fill:#ED1E2E;}
	.st3{display:none;}
	.st4{display:inline;fill:none;stroke:#42B5E8;stroke-width:0.346;stroke-dasharray:5.074,5.074;}
	.st5{display:inline;fill:none;stroke:#42B5E8;stroke-width:0.346;stroke-dasharray:5.031,5.031;}
	.st6{display:inline;fill:none;stroke:#42B5E8;stroke-width:0.346;}
	.st7{display:inline;fill:none;stroke:#42B5E8;stroke-width:0.692;}
	.st8{display:inline;fill:#42B5E8;}
</style>
<g id="Logo">
	<g>
		<path class="st0" d="M180.75,12.96c0,0,0,10.96,0,10.84h14.5V12.96c0,0,7.08,0,7.19,0v27.17h-7.19V28.14h-14.5v11.99h-7.31V12.96
			H180.75z"/>
		<path class="st0" d="M112.38,12.96v4.57h-10.96v22.6h-7.31v-22.6H83.27v-4.57H112.38"/>
		<path class="st0" d="M123.33,17.53l-5.02,12.21h9.93L123.33,17.53z M140.46,40.13c0,0-8.1,0-7.88,0l-2.4-5.94h-13.47l-2.4,5.94
			h-7.88l12.67-27.17h8.79L140.46,40.13z"/>
		<rect x="208.27" y="12.96" class="st0" width="7.19" height="27.17"/>
		<path class="st0" d="M46.17,12.96c0,0,0,10.96,0,10.84h14.5V12.96c0,0,7.08,0,7.31,0v27.17h-7.31V28.14h-14.5v11.99h-7.31V12.96
			H46.17z"/>
		<rect x="73.45" y="12.96" class="st0" width="7.31" height="27.17"/>
		<path class="st0" d="M140.23,32.48c-0.68-1.83-1.03-3.65-1.03-5.71c0-2.85,0.46-5.59,1.83-7.88c1.37-2.28,3.54-4.22,6.28-5.25
			c2.4-0.8,5.02-1.37,7.88-1.37c3.2,0,6.28,0.68,9.13,1.83c2.51,1.14,4.57,3.42,5.02,6.28c0.11,0.46,0.11,1.14,0.34,1.71h-7.53
			c0-0.68-0.11-1.48-0.34-2.05c-0.46-1.48-1.83-2.74-3.42-3.2c-1.03-0.34-2.05-0.46-3.2-0.46s-2.51,0.23-3.54,0.68
			c-1.83,0.68-3.2,2.17-3.88,4c-0.68,1.83-1.03,3.65-1.03,5.71c0,1.71,0.34,3.2,0.68,4.68c0.46,2.05,2.05,3.54,3.88,4.22
			c1.14,0.46,2.51,0.68,3.88,0.68c1.14,0,2.17-0.23,3.42-0.46c1.37-0.46,2.51-1.48,3.2-2.85c0.34-0.8,0.68-1.83,0.68-2.85h7.53
			c0,0.8-0.11,1.71-0.34,2.51c-0.68,2.74-2.51,4.91-5.02,6.05c-2.85,1.14-5.94,1.83-9.25,1.83c-2.51,0-5.02-0.34-7.31-1.14
			C144.45,38.53,141.37,36.02,140.23,32.48"/>
		<path class="st0" d="M32.47,47.66l-6.39,0.68v1.03h0.11c2.51,0.34,2.51,0.34,2.51,2.17v13.47h3.88L32.47,47.66
			C32.58,47.66,32.47,47.66,32.47,47.66z"/>
		<path class="st0" d="M46.17,52.69c-2.4,0-3.88,1.71-4.57,2.51v-2.51h-0.34l-5.02,0.8v0.8h0.11c1.71,0,2.05,0.34,2.05,2.05v8.45
			h3.2v-6.28c0-1.71,1.48-3.65,3.2-3.65c1.48,0,1.71,1.37,1.71,3.42v6.62h3.2v-8.45C49.71,54.06,48.34,52.69,46.17,52.69"/>
		<path class="st0" d="M58.72,57.48c-1.37-0.68-2.4-1.14-2.4-2.05c0-1.03,1.14-1.14,1.71-1.14c1.37,0,2.51,0.68,3.08,1.03l0.46,0.34
			v-0.34v-2.05l-0.34-0.23c-0.46-0.23-1.71-0.34-2.85-0.34c-3.08,0-4.91,1.37-4.91,3.54c0,2.05,1.83,2.85,3.54,3.65
			c1.37,0.68,2.51,1.14,2.51,2.17c0,0.8-0.8,1.37-2.17,1.37c-1.48,0-2.85-0.8-3.54-1.14l-0.34-0.23v2.51h0.11
			c0.68,0.23,1.83,0.46,3.54,0.46c3.2,0,5.25-1.37,5.25-3.54C62.49,59.31,60.44,58.28,58.72,57.48"/>
		<path class="st0" d="M72.08,54.63c2.17,0,2.51,2.4,2.51,4.22c0,3.08-0.8,4.57-2.4,4.57c-2.17,0-2.51-2.05-2.51-3.54v-1.03
			C69.57,57.48,69.68,54.63,72.08,54.63 M72.99,52.69c-1.14,0-2.4,0.46-3.42,1.71v-1.71h-0.34l-5.25,0.8v0.8h0.11
			c1.71,0,2.05,0.34,2.05,2.05V69.7h3.2v-6.05c0.68,0.68,1.48,1.37,3.42,1.37c3.42,0,5.25-2.17,5.25-6.39
			C78.02,54.97,76.19,52.69,72.99,52.69"/>
		<path class="st0" d="M80.41,53.6v0.8h0.11c1.48,0,1.83,0.34,1.83,2.05v8.45h3.2V52.69h-0.34L80.41,53.6z"/>
		<path class="st0" d="M84.07,51.43c1.14,0,2.05-0.8,2.05-1.83c0-1.03-0.8-1.71-2.05-1.71c-1.03,0-2.05,0.8-2.05,1.71
			C82.24,50.52,83.04,51.43,84.07,51.43"/>
		<path class="st0" d="M99.25,55.43v-2.51h-0.11c-0.46-0.23-1.03-0.23-1.48-0.23c-1.83,0-2.85,1.37-3.42,2.4v-2.4h-0.34l-5.25,0.8
			v0.8h0.11c1.71,0,2.05,0.34,2.05,2.05v8.45H94v-6.05c0-1.03,0.34-3.42,3.42-3.42c0.34,0,0.68,0.23,1.14,0.23l0.46,0.23
			L99.25,55.43z"/>
		<path class="st0" d="M106.67,54.06c1.71,0,2.17,1.14,2.17,2.4h-4.68C104.27,55.65,104.84,54.06,106.67,54.06 M112.03,57.6
			c0-3.2-1.83-4.91-5.37-4.91c-4,0-6.05,1.83-6.05,5.71c0,4.11,2.74,6.62,7.08,6.62c1.83,0,3.42-0.46,4-0.68h0.11v-1.48h-0.34
			c-0.46,0.23-1.48,0.34-2.51,0.34c-3.54,0-4.68-2.85-4.91-5.37h7.88L112.03,57.6L112.03,57.6z"/>
		<path class="st0" d="M141.6,52.69c-2.4,0-3.65,1.48-4.34,2.51v-8.1h-0.34l-5.25,0.68v0.8h0.11c1.71,0,2.05,0.46,2.05,2.05v14.04
			h3.2v-6.05c0-2.17,1.71-3.88,3.08-3.88c1.83,0,1.83,1.37,1.83,2.51v7.42h3.2v-7.76C145.25,55.77,145.25,52.69,141.6,52.69"/>
		<path class="st0" d="M154.38,54.06c1.71,0,2.17,1.14,2.17,2.4h-4.68C152.1,55.65,152.56,54.06,154.38,54.06 M159.75,57.6
			c0-3.2-1.83-4.91-5.37-4.91c-4,0-6.05,1.83-6.05,5.71c0,4.11,2.74,6.62,7.08,6.62c1.83,0,3.42-0.46,4-0.68h0.11v-1.48h-0.34
			c-0.46,0.23-1.48,0.34-2.51,0.34c-3.54,0-4.68-2.85-4.91-5.37h7.88C159.75,57.82,159.75,57.6,159.75,57.6z"/>
		<path class="st0" d="M123.56,49.38v3.65h-2.17v1.37h2.17v7.31c0,3.2,2.05,3.42,4.34,3.42c0.68,0,1.14-0.23,1.83-0.23h0.11v-1.48
			h-0.34c-0.34,0-0.68,0.23-1.03,0.23c-2.05,0-2.05-0.46-2.05-2.17v-6.96h3.65v-1.48h-3.65v-3.54L123.56,49.38L123.56,49.38z"/>
		<path class="st0" d="M187.26,48.01h-3.2v12.79c-0.68-1.03-8.45-12.79-8.45-12.79h-7.42v1.03l0.68,0.11
			c2.05,0.34,2.17,0.34,2.17,2.4v13.47h3.54V51.55c0.68,1.03,8.9,13.47,8.9,13.47h4.22V48.23h-0.46L187.26,48.01L187.26,48.01z"/>
		<path class="st0" d="M196.62,54.06c1.71,0,2.17,1.14,2.17,2.4H194C194.22,55.65,194.68,54.06,196.62,54.06 M201.99,57.6
			c0-3.2-1.83-4.91-5.37-4.91c-4.11,0-6.05,2.05-6.05,5.71c0,4.11,2.74,6.62,7.08,6.62c1.83,0,3.42-0.46,3.88-0.68h0.23v-1.48
			l-0.34,0.23c-0.46,0.23-1.48,0.34-2.51,0.34c-3.54,0-4.68-2.85-4.91-5.37h7.88L201.99,57.6L201.99,57.6L201.99,57.6z"/>
		<path class="st0" d="M219.91,49.38v3.65h-2.17v1.37h2.17v7.31c0,3.2,2.05,3.42,4.34,3.42c0.68,0,1.14-0.23,1.83-0.23h0.23v-1.48
			h-0.34c-0.34,0-0.68,0.23-1.03,0.23c-2.05,0-2.05-0.46-2.05-2.17v-6.96h3.65v-1.48h-3.65v-3.54L219.91,49.38L219.91,49.38z"/>
		<path class="st0" d="M213.29,56.91l3.42-3.88h-3.42l-3.2,3.65l-2.85-3.65h-4.91v1.03h0.23c1.71,0.23,2.05,0.34,3.08,1.83
			l2.05,2.74l-3.42,3.88h3.42l1.48-1.71l3.2,4.22h3.88l-6.05-7.88h3.2L213.29,56.91L213.29,56.91z"/>
		<polygon class="st1" points="219.91,49.38 216.48,49.38 220.48,44.7 224.02,44.7 		"/>
	</g>
	<g>
		<path class="st2" d="M30.17,160.64c4.77,1.14,8.41,4.77,9.55,9.55c0.34,1.59,1.48,2.84,3.18,2.96l0,0
			c-1.71,0.11-2.84,1.36-3.18,2.96l0,0c-1.14,4.77-4.89,8.53-9.55,9.55c-1.59,0.34-2.84,1.48-2.96,3.18l0,0
			c-0.11-1.71-1.36-2.84-2.96-3.18c-4.77-1.14-8.41-4.89-9.55-9.55c-0.34-1.59-1.48-2.84-3.18-2.96l0,0
			c1.71-0.11,2.84-1.36,3.18-2.96c1.14-4.77,4.77-8.41,9.55-9.55c1.59-0.34,2.84-1.48,2.96-3.18l0,0
			C27.32,159.17,28.57,160.3,30.17,160.64L30.17,160.64L30.17,160.64z M27.21,178.38c2.84,0,5.12-2.27,5.12-5.12
			c0-2.84-2.27-5.12-5.12-5.12s-5.12,2.27-5.12,5.12C21.98,176.1,24.37,178.38,27.21,178.38L27.21,178.38z M20.39,165.42h5.57v-2.5
			C23.8,163.26,21.87,164.17,20.39,165.42L20.39,165.42z M28.46,165.42h5.57c-1.48-1.36-3.41-2.27-5.57-2.5V165.42L28.46,165.42z
			 M27.21,183.49c3.18,0,5-1.02,6.82-2.61H20.39C22.21,182.58,24.6,183.49,27.21,183.49L27.21,183.49z M27.21,175.76
			c1.48,0,2.61-1.14,2.61-2.61s-1.14-2.61-2.61-2.61c-1.36,0-2.61,1.14-2.61,2.61S25.73,175.76,27.21,175.76L27.21,175.76z
			 M21.41,178.38c-1.25-1.36-1.93-3.18-1.93-5.12c0-1.93,0.68-3.75,1.93-5.12h-3.18c-0.91,1.48-1.36,3.3-1.36,5.12
			c0,1.82,0.45,3.64,1.36,5.12H21.41L21.41,178.38z M36.08,178.38c0.91-1.48,1.36-3.3,1.36-5.12c0-1.93-0.45-3.64-1.36-5.12h-3.18
			c1.25,1.36,1.93,3.18,1.93,5.12c0,1.93-0.8,3.75-1.93,5.12H36.08L36.08,178.38z"/>
		<path class="st2" d="M45.74,162.92v20.58h4.55v-8.87h8.3v8.87h4.55v-20.58h-4.55v7.96h-8.3v-7.96H45.74L45.74,162.92z
			 M66.09,162.92v3.41h4.09v-3.41H66.09L66.09,162.92z M66.09,168.6v14.89h4.09V168.6H66.09L66.09,168.6z M74.61,164.05v4.43h-2.5
			v2.73h2.5v8.75c0,2.61,1.59,3.64,4.66,3.64c0.8,0,1.71,0,2.39-0.11v-3.18c-0.34,0.11-0.8,0.11-1.25,0.11
			c-1.36,0-1.71-0.34-1.71-1.71v-7.39h2.96v-2.73h-2.96v-4.43L74.61,164.05L74.61,164.05z M90.87,168.15c-4.21,0-6.82,1.71-7.05,5
			h4.09c0.11-1.59,1.02-2.27,2.73-2.27c1.36,0,2.61,0.23,2.61,2.05c0,1.36-1.14,1.59-3.86,1.82c-2.5,0.23-3.86,0.68-4.77,1.48
			c-0.8,0.68-1.25,1.71-1.25,3.18c0,2.84,2.05,4.43,5.12,4.43c2.16,0,3.86-0.68,5-1.82c0,0.45,0.11,1.02,0.23,1.48h4.21
			c-0.34-0.57-0.57-2.05-0.57-3.18v-7.96C97.35,169.62,95.19,168.15,90.87,168.15L90.87,168.15z M87.46,179.29
			c0-1.59,1.25-2.05,3.41-2.39c1.36-0.11,2.16-0.34,2.5-0.68v1.59c0,2.16-1.14,3.41-3.3,3.41
			C88.14,181.22,87.46,180.42,87.46,179.29L87.46,179.29z M107.12,168.15c-4.77,0-7.62,3.3-7.62,8.07c0,4.32,2.84,7.62,7.5,7.62
			c3.98,0,6.59-2.16,7.16-6.14h-3.98c-0.23,2.05-1.48,3.07-3.3,3.07c-2.39,0-3.41-2.27-3.41-4.66c0-2.39,1.02-4.89,3.52-4.89
			c1.71,0,2.73,0.91,3.07,2.61h3.98C113.94,170.31,110.99,168.15,107.12,168.15L107.12,168.15z M116.45,162.92v20.58h4.09v-7.84
			c0-2.61,0.68-4.32,3.18-4.32c1.93,0,2.61,1.14,2.61,3.64v8.53h4.09v-9.32c0-4.09-1.71-6.02-5.46-6.02c-1.71,0-3.41,0.91-4.43,2.5
			h-0.11v-7.73H116.45L116.45,162.92z M133.38,162.92v3.41h4.09v-3.41H133.38L133.38,162.92z M133.38,168.6v14.89h4.09V168.6H133.38
			L133.38,168.6z M147.48,162.92v20.58h15.69v-3.86h-11.14v-5h10v-3.52h-10v-4.43h10.91v-3.86L147.48,162.92L147.48,162.92z
			 M174.19,168.15c-1.93,0-3.64,0.91-4.55,2.5h-0.11v-2.05h-3.86v14.89h4.09v-7.73c0-2.61,0.68-4.32,3.18-4.32
			c1.93,0,2.61,1.14,2.61,3.64v8.41h4.09v-9.32C179.65,170.08,177.94,168.15,174.19,168.15L174.19,168.15z M189.31,168.15
			c-4.55,0-7.62,3.41-7.62,7.84c0,4.55,2.84,7.84,7.62,7.84c3.52,0,5.91-1.59,6.93-5h-3.52c-0.34,1.02-1.71,1.93-3.3,1.93
			c-2.39,0-3.52-1.25-3.64-3.75h10.8c0,0,0-0.57,0-0.8C196.59,171.9,194.09,168.15,189.31,168.15L189.31,168.15z M185.79,174.4
			c0.11-1.93,1.36-3.18,3.41-3.18c1.93,0,2.84,0.91,3.3,3.18H185.79L185.79,174.4z M207.61,168.15c-2.05,0-3.98,1.25-4.77,3.18l0,0
			v-2.73h-3.86v14.89h4.09v-6.71c0-2.73,1.02-4.77,4.09-4.77c0.57,0,1.02,0.11,1.48,0.11v-3.86
			C208.29,168.26,207.95,168.15,207.61,168.15L207.61,168.15z M215.91,168.15c-4.21,0-6.37,3.52-6.37,7.39c0,4.32,2.05,7.5,6.37,7.5
			c2.05,0,3.64-0.91,4.43-2.27h0.11v2.05c0,2.27-1.14,3.64-3.3,3.64c-1.59,0-2.73-0.57-3.07-2.05H210c0.23,3.07,3.18,4.77,6.59,4.77
			c5.46,0,7.73-2.73,7.73-6.59V168.6h-3.98v2.05l0,0C219.44,168.94,217.96,168.15,215.91,168.15L215.91,168.15z M213.52,175.54
			c0-2.5,1.14-4.21,3.3-4.21c2.84,0,3.52,2.5,3.52,4.55c0,2.39-1.25,4.21-3.52,4.21C214.55,179.97,213.52,177.92,213.52,175.54
			L213.52,175.54z M225.69,168.6l5.23,13.98c0.11,0.45,0.23,0.68,0.23,0.91c0,1.02-0.68,1.82-1.82,1.82c-0.57,0-1.25,0-2.16-0.11
			v3.41c0.91,0.11,1.59,0.11,2.61,0.11c2.73,0,4.21-1.02,5.12-3.41l6.25-16.82h-4.21l-3.3,10.23h-0.11l-3.41-10.23L225.69,168.6
			L225.69,168.6z"/>
	</g>
</g>
<g id="Details" class="st3">
	<line class="st4" x1="-6.67" y1="14.75" x2="252.1" y2="14.75"/>
	<line class="st4" x1="-6.67" y1="130.74" x2="252.1" y2="130.74"/>
	<line class="st4" x1="-6.67" y1="41.06" x2="252.1" y2="41.06"/>
	<line class="st5" x1="-6.67" y1="63.2" x2="229.77" y2="63.2"/>
	<line class="st5" x1="-6.67" y1="83.28" x2="229.77" y2="83.28"/>
	<line class="st5" x1="-6.67" y1="109.72" x2="229.77" y2="109.72"/>
	<line class="st6" x1="12.66" y1="160.29" x2="229.77" y2="160.29"/>
	<line class="st6" x1="-5.98" y1="14.58" x2="-5.98" y2="40.88"/>
	<line class="st6" x1="251.92" y1="41.23" x2="251.92" y2="130.56"/>
	
		<text transform="matrix(1 0 0 1 -40.4797 30.6516)" class="st8" style="font-family:'HelveticaNeueLTPro-Lt'; font-size:10.3783px;">h</text>
	
		<text transform="matrix(1 0 0 1 -40.4797 99.4909)" class="st8" style="font-family:'HelveticaNeueLTPro-Lt'; font-size:10.3783px;">h</text>
	
		<text transform="matrix(1 0 0 1 -54.9054 55.1443)" class="st8" style="font-family:'HelveticaNeueLTPro-Lt'; font-size:10.3783px;">0.8h</text>
	
		<text transform="matrix(1 0 0 1 -54.9054 75.9011)" class="st8" style="font-family:'HelveticaNeueLTPro-Lt'; font-size:10.3783px;">0.8h</text>
	
		<text transform="matrix(1 0 0 1 -54.9054 124.4714)" class="st8" style="font-family:'HelveticaNeueLTPro-Lt'; font-size:10.3783px;">0.8h</text>
	<line class="st6" x1="229.6" y1="160.46" x2="229.6" y2="14.92"/>
	<line class="st6" x1="12.83" y1="160.46" x2="12.83" y2="14.92"/>
	<line class="st7" x1="-32.49" y1="27.73" x2="-15.64" y2="27.73"/>
	<polygon class="st8" points="-10.13,27.73 -17.19,25.16 -15.64,27.73 -17.19,30.3 	"/>
	<line class="st7" x1="-32.49" y1="96.57" x2="-15.64" y2="96.57"/>
	<polygon class="st8" points="-10.13,96.57 -17.19,94 -15.64,96.57 -17.19,99.14 	"/>
	<line class="st7" x1="-32.49" y1="52" x2="-15.64" y2="52"/>
	<polygon class="st8" points="-10.13,52 -17.19,49.43 -15.64,52 -17.19,54.58 	"/>
	<line class="st7" x1="-32.49" y1="72.76" x2="-15.64" y2="72.76"/>
	<polygon class="st8" points="-10.13,72.76 -17.19,70.19 -15.64,72.76 -17.19,75.33 	"/>
	<line class="st7" x1="-32.49" y1="121.33" x2="-15.64" y2="121.33"/>
	<polygon class="st8" points="-10.13,121.33 -17.19,118.76 -15.64,121.33 -17.19,123.9 	"/>
	
		<text transform="matrix(1 0 0 1 257.6961 86.1311)" class="st8" style="font-family:'HelveticaNeueLTPro-Lt'; font-size:10.3783px;">3.4h</text>
</g>
</svg>
